<?xml version="1.0" encoding="UTF-8"?>
<svg width="700pt" height="700pt" version="1.1" viewBox="0 0 700 700" xmlns="http://www.w3.org/2000/svg">
 <g>
  <path d="m542.5 35h-385c-13.926 0-27.277 5.5312-37.125 15.375-9.8438 9.8477-15.375 23.199-15.375 37.125v385c0 13.926 5.5312 27.277 15.375 37.125 9.8477 9.8438 23.199 15.375 37.125 15.375h385c13.926 0 27.277-5.5312 37.125-15.375 9.8438-9.8477 15.375-23.199 15.375-37.125v-385c0-13.926-5.5312-27.277-15.375-37.125-9.8477-9.8438-23.199-15.375-37.125-15.375zm17.5 437.5c0 4.6406-1.8438 9.0938-5.125 12.375s-7.7344 5.125-12.375 5.125h-385c-4.6406 0-9.0938-1.8438-12.375-5.125s-5.125-7.7344-5.125-12.375v-385c0-4.6406 1.8438-9.0938 5.125-12.375s7.7344-5.125 12.375-5.125h385c4.6406 0 9.0938 1.8438 12.375 5.125s5.125 7.7344 5.125 12.375z"/>
  <path d="m297.5 122.5h-70c-9.2812 0-18.184 3.6875-24.75 10.25-6.5625 6.5664-10.25 15.469-10.25 24.75v157.5c0 9.2812 3.6875 18.184 10.25 24.75 6.5664 6.5625 15.469 10.25 24.75 10.25h70c9.2812 0 18.184-3.6875 24.75-10.25 6.5625-6.5664 10.25-15.469 10.25-24.75v-157.5c0-9.2812-3.6875-18.184-10.25-24.75-6.5664-6.5625-15.469-10.25-24.75-10.25zm-70 192.5v-157.5h70v157.5z"/>
  <path d="m472.5 122.5h-70c-9.2812 0-18.184 3.6875-24.75 10.25-6.5625 6.5664-10.25 15.469-10.25 24.75v87.5c0 9.2812 3.6875 18.184 10.25 24.75 6.5664 6.5625 15.469 10.25 24.75 10.25h70c9.2812 0 18.184-3.6875 24.75-10.25 6.5625-6.5664 10.25-15.469 10.25-24.75v-87.5c0-9.2812-3.6875-18.184-10.25-24.75-6.5664-6.5625-15.469-10.25-24.75-10.25zm-70 122.5v-87.5h70v87.5z"/>
 </g>
</svg>
